<?xml version="1.0" standalone="no"?>
<!DOCTYPE svg PUBLIC "-//W3C//DTD SVG 20010904//EN"
 "http://www.w3.org/TR/2001/REC-SVG-20010904/DTD/svg10.dtd">
<svg version="1.0" xmlns="http://www.w3.org/2000/svg"
 width="400.000000pt" height="400.000000pt" viewBox="0 0 400.000000 400.000000"
 preserveAspectRatio="xMidYMid meet">
<metadata>
Created by potrace 1.11, written by Peter Selinger 2001-2013
</metadata>
<g transform="translate(0.000000,400.000000) scale(0.100000,-0.100000)"
fill="#000000" stroke="none">
<path d="M2240 3378 c-60 -30 -119 -92 -150 -154 l-25 -51 -175 -7 c-96 -3
-194 -9 -217 -12 -38 -5 -43 -4 -56 23 -55 103 -218 175 -349 154 -101 -17
-167 -64 -233 -166 -38 -59 -75 -181 -75 -250 0 -57 31 -126 74 -161 26 -22
27 -26 13 -42 -15 -18 -42 -92 -72 -199 -14 -49 -17 -86 -13 -180 9 -199 40
-271 183 -423 28 -30 54 -60 56 -66 2 -7 31 -30 64 -52 61 -40 173 -81 353
-128 10 -3 12 -28 10 -102 -2 -103 4 -131 27 -112 10 8 24 3 58 -20 24 -16 62
-33 83 -38 34 -7 40 -12 50 -49 12 -41 32 -84 43 -93 8 -7 26 -37 56 -92 27
-52 32 -116 14 -180 -12 -46 -29 -48 -52 -8 -25 41 -66 60 -130 60 -41 0 -61
-5 -78 -21 l-24 -20 35 7 c105 20 159 0 193 -71 16 -32 17 -45 8 -76 -6 -20
-11 -53 -11 -73 0 -51 -42 -76 -127 -76 -54 0 -76 -7 -175 -54 -62 -30 -147
-71 -188 -91 -84 -39 -172 -88 -211 -116 -41 -29 -176 -69 -234 -69 -80 0 -89
15 -83 142 5 89 11 118 48 213 23 61 48 117 56 126 8 8 14 19 14 23 0 9 117
162 178 233 78 91 174 187 227 229 27 21 56 45 63 52 8 6 43 33 80 60 55 39
63 48 45 50 -47 7 -243 -158 -404 -338 -179 -200 -241 -298 -300 -470 -27 -81
-32 -110 -33 -198 -1 -102 0 -104 27 -128 62 -53 251 -11 401 91 21 14 39 25
41 23 1 -2 -4 -64 -11 -138 -18 -186 -18 -340 0 -340 10 0 14 33 19 148 4 81
8 156 11 167 2 11 5 57 5 102 l1 81 35 21 c19 11 66 32 103 47 37 15 106 46
154 70 69 35 99 44 140 44 29 1 71 7 93 15 22 8 41 15 42 15 1 0 18 -29 38
-63 39 -70 43 -106 21 -179 -14 -45 -73 -162 -122 -243 -42 -69 -56 -107 -56
-157 1 -53 7 -68 27 -68 11 0 12 6 3 31 -16 46 -5 85 55 189 51 89 68 121 105
194 9 16 17 62 20 101 4 58 0 81 -16 118 -15 33 -17 47 -8 47 6 0 16 -4 21 -9
12 -10 103 -41 122 -41 24 0 13 20 -14 27 -40 9 -114 43 -146 65 -26 18 -27
23 -21 71 8 65 41 126 72 134 38 9 114 -2 161 -25 54 -26 67 -19 26 14 -42 34
-125 51 -178 37 -23 -7 -43 -10 -45 -8 -2 2 2 31 9 65 15 78 7 107 -66 228
-72 118 -71 134 8 144 32 4 64 11 71 15 22 13 83 70 88 83 7 21 188 -93 375
-237 93 -71 104 -82 164 -158 70 -88 89 -120 134 -225 70 -160 80 -208 80
-380 0 -132 -3 -162 -19 -200 -28 -63 -42 -78 -87 -85 -54 -9 -51 -29 4 -22
149 20 184 316 74 632 -14 39 -38 98 -54 132 -35 70 -166 249 -195 264 -18 10
-55 39 -82 65 -7 7 -50 37 -95 68 -46 31 -100 69 -120 84 -54 42 -127 82 -149
82 -16 0 -23 11 -32 51 -10 42 -14 49 -22 34 -6 -9 -8 -32 -5 -51 11 -67 -64
-134 -152 -134 -40 0 -43 2 -37 23 3 12 6 35 6 50 0 20 10 37 31 55 17 15 44
46 60 70 28 40 32 42 80 42 27 0 85 7 127 16 42 9 86 17 97 18 11 2 36 8 55
14 19 6 67 20 105 31 81 24 236 121 276 173 78 101 129 251 129 372 -1 126
-56 287 -155 450 l-36 60 26 20 c34 27 65 136 65 229 0 95 -39 178 -120 258
-87 85 -144 112 -250 116 -73 4 -91 1 -130 -19z m-487 -1750 c18 -18 52 -50
76 -70 42 -35 43 -38 32 -69 -6 -18 -11 -43 -11 -55 0 -34 -27 -31 -116 12
l-74 37 -1 51 c0 28 -2 64 -4 80 -5 39 0 46 36 46 20 0 40 -10 62 -32z"/>
<path d="M1465 875 c-71 -36 -133 -65 -137 -65 -5 0 -8 21 -8 46 0 59 -17 48
-26 -17 -5 -39 -13 -55 -35 -72 -16 -12 -48 -37 -72 -54 -55 -43 -78 -65 -72
-71 6 -6 75 30 75 39 0 10 179 129 193 129 17 -1 246 113 247 123 1 17 -43 2
-165 -58z"/>
<path d="M1656 853 c7 -79 13 -103 24 -103 21 0 4 150 -17 157 -8 3 -10 -12
-7 -54z"/>
<path d="M2286 843 c-3 -4 -6 -11 -6 -16 0 -6 3 -8 6 -5 7 8 84 -28 142 -65
48 -31 92 -73 171 -165 51 -59 71 -74 71 -53 0 5 -27 41 -60 81 -38 45 -63 87
-70 113 -11 44 -41 119 -46 115 -1 -2 2 -25 7 -52 5 -27 7 -51 5 -54 -3 -2
-20 6 -38 19 -66 48 -170 94 -182 82z"/>
<path d="M2242 786 c-27 -35 -67 -185 -53 -199 12 -12 12 -12 36 78 8 33 23
77 32 98 20 46 12 57 -15 23z"/>
<path d="M2251 549 c17 -22 54 -64 81 -92 27 -29 69 -77 94 -107 50 -61 52
-68 54 -257 1 -77 4 -93 17 -93 14 0 15 16 11 122 -3 68 -9 132 -14 143 -6 15
-1 13 22 -9 38 -36 110 -86 123 -86 24 0 8 26 -30 50 -39 24 -140 123 -230
225 -71 79 -138 145 -150 145 -6 0 4 -18 22 -41z"/>
</g>
</svg>
